<?xml version="1.0" encoding="utf-8"?>
<!-- Generator: Adobe Illustrator 16.0.0, SVG Export Plug-In . SVG Version: 6.00 Build 0)  -->
<!DOCTYPE svg PUBLIC "-//W3C//DTD SVG 1.1//EN" "http://www.w3.org/Graphics/SVG/1.1/DTD/svg11.dtd">
<svg version="1.1" id="Calque_1" xmlns="http://www.w3.org/2000/svg" xmlns:xlink="http://www.w3.org/1999/xlink" x="0px" y="0px"
	 width="74.757px" height="112.353px" viewBox="0 0 74.757 112.353" enable-background="new 0 0 74.757 112.353"
	 xml:space="preserve">
<g>
	<g>
		<path fill="#169179" d="M33.966,24.652c1.517-3.61,5.309-3.61,6.825,0L57.507,64.44l16.717,39.789
			c1.516,3.61-0.38,8.123-3.413,8.123H37.378H3.947c-3.033,0-4.93-4.513-3.413-8.123L17.25,64.44L33.966,24.652z"/>
		<path fill="#11725F" d="M34.662,16.527c1.207-2.874,4.227-2.874,5.434,0l13.309,31.678l13.309,31.677
			c1.207,2.875-0.302,6.468-2.717,6.468H37.378H10.762c-2.415,0-3.925-3.593-2.718-6.468l13.309-31.677L34.662,16.527z"/>
	</g>
	<g>
		<path fill="#F7F1DA" d="M40.417,26.398c3.416,2.084,7.236,3.47,11.181,4.135l-1.909-4.545L39.466,1.655
			c-0.928-2.207-3.247-2.207-4.175,0L29.58,15.253C32.218,19.776,35.945,23.67,40.417,26.398z"/>
		<path fill="#169179" d="M51.598,30.533c-3.944-0.665-7.765-2.051-11.181-4.135c-4.473-2.729-8.199-6.622-10.838-11.146
			l-4.511,10.735L14.846,50.321c-0.928,2.208,0.231,4.968,2.087,4.968h20.445h20.445c1.855,0,3.016-2.76,2.088-4.968L51.598,30.533z
			"/>
	</g>
	<g>
		<path fill="#F7F1DA" d="M29.595,37.693c-4.59,0-4.598,7.132,0,7.132C34.184,44.825,34.191,37.693,29.595,37.693z"/>
		<path fill="#F7F1DA" d="M46.711,61.941c-4.589,0-4.597,7.132,0,7.132C51.3,69.073,51.308,61.941,46.711,61.941z"/>
		<path fill="#F7F1DA" d="M21.037,96.888c-4.589,0-4.597,7.132,0,7.132C25.625,104.02,25.633,96.888,21.037,96.888z"/>
		<path fill="#F7F1DA" d="M43.859,40.546c-2.754,0-2.758,4.279,0,4.279C46.612,44.825,46.617,40.546,43.859,40.546z"/>
		<path fill="#F7F1DA" d="M28.882,70.5c-2.754,0-2.759,4.278,0,4.278C31.635,74.778,31.64,70.5,28.882,70.5z"/>
		<path fill="#F7F1DA" d="M56.696,98.729c-2.753,0-2.758,4.279,0,4.279C59.449,103.009,59.455,98.729,56.696,98.729z"/>
		<path fill="#F7F1DA" d="M38.154,92.608c-2.754,0-2.759,4.279,0,4.279C40.906,96.888,40.912,92.608,38.154,92.608z"/>
	</g>
</g>
</svg>
