<?xml version="1.0" encoding="utf-8"?>
<!-- Generator: Adobe Illustrator 16.0.0, SVG Export Plug-In . SVG Version: 6.00 Build 0)  -->
<!DOCTYPE svg PUBLIC "-//W3C//DTD SVG 1.1//EN" "http://www.w3.org/Graphics/SVG/1.1/DTD/svg11.dtd">
<svg version="1.1" id="Calque_1" xmlns="http://www.w3.org/2000/svg" xmlns:xlink="http://www.w3.org/1999/xlink" x="0px" y="0px"
	 width="277.5px" height="214.5px" viewBox="0 0 277.5 214.5" enable-background="new 0 0 277.5 214.5" xml:space="preserve">
<path fill="#EFEFEF" d="M231.738,208.102h-55.067c-3.025,0-5.5-2.476-5.5-5.5v-1.356c0-3.025,2.475-5.5,5.5-5.5h55.067
	c3.024,0,5.5,2.475,5.5,5.5v1.356C237.238,205.626,234.763,208.102,231.738,208.102z"/>
<g>
	<g>
		<path fill="#DDD19F" d="M145.95,45.729h-15.474c-0.78,0-1.417-0.638-1.417-1.417V13.462c0-0.78,0.638-1.418,1.417-1.418h15.474
			c0.779,0,1.417,0.638,1.417,1.418v30.851C147.367,45.092,146.729,45.729,145.95,45.729z"/>
		<path fill="#005B4A" d="M150.636,16.821h-24.847c-0.779,0-1.417-0.638-1.417-1.418v-4.772c0-0.78,0.638-1.418,1.417-1.418h24.847
			c0.78,0,1.417,0.638,1.417,1.418v4.773C152.054,16.184,151.416,16.821,150.636,16.821z"/>
		<path fill="#BCB07E" d="M147.441,31.532h-9.502c-0.779,0-1.417-0.638-1.417-1.417v-2.456c0-0.779,0.638-1.417,1.417-1.417h9.502
			c0.78,0,1.417,0.638,1.417,1.417v2.456C148.859,30.895,148.221,31.532,147.441,31.532z"/>
	</g>
	<g>
		<g>
			<path fill="#DDD19F" d="M261.313,173.609H100.285c-1.1,0-2-0.9-2-2V94.456c0-1.101,0.9-2,2-2h161.028c1.1,0,2,0.899,2,2v77.153
				C263.313,172.709,262.412,173.609,261.313,173.609z"/>
			<g>
				<path fill="#11725F" d="M272.065,96.287H89.532c-1.26,0-2.291-1.031-2.291-2.291l9.805-52.931c0-1.26-2.153-2.291-0.893-2.291
					h162.924c1.26,0,2.291,1.031,2.291,2.291l12.989,52.931C274.356,95.256,273.325,96.287,272.065,96.287z"/>
				<path fill="#005B4A" d="M270.678,79.305h-10.072c-0.779,0-1.416-0.638-1.416-1.417v-2.7c0-0.779,0.637-1.417,1.416-1.417h10.072
					c0.779,0,1.418,0.638,1.418,1.417v2.7C272.096,78.667,271.457,79.305,270.678,79.305z"/>
				<path fill="#005B4A" d="M212.561,82.603h-10.072c-0.78,0-1.417-0.639-1.417-1.418v-2.699c0-0.78,0.638-1.418,1.417-1.418h10.072
					c0.78,0,1.417,0.638,1.417,1.418v2.699C213.978,81.964,213.34,82.603,212.561,82.603z"/>
				<path fill="#005B4A" d="M237.284,57.879h-10.071c-0.78,0-1.418-0.638-1.418-1.418v-2.699c0-0.78,0.638-1.418,1.418-1.418h10.071
					c0.78,0,1.417,0.638,1.417,1.418v2.699C238.701,57.241,238.064,57.879,237.284,57.879z"/>
				<path fill="#005B4A" d="M145.776,86.813h-10.072c-0.78,0-1.417-0.638-1.417-1.417v-2.7c0-0.779,0.638-1.417,1.417-1.417h10.072
					c0.78,0,1.417,0.638,1.417,1.417v2.7C147.193,86.176,146.556,86.813,145.776,86.813z"/>
				<path fill="#005B4A" d="M161.962,57.57H151.89c-0.78,0-1.417-0.638-1.417-1.417v-2.7c0-0.779,0.638-1.417,1.417-1.417h10.072
					c0.78,0,1.417,0.638,1.417,1.417v2.7C163.379,56.933,162.742,57.57,161.962,57.57z"/>
			</g>
			<g>
				<g>
					<path fill="#FFFFFF" d="M206.754,148.267v-32.731c0-1.101,0.9-2,2-2h21.344c1.101,0,2,0.899,2,2v32.731c0,1.1-0.899,2-2,2
						h-21.344C207.654,150.267,206.754,149.366,206.754,148.267z"/>
					<rect x="203.435" y="130.922" fill="#DDD19F" width="31.983" height="4.319"/>
				</g>
				<g>
					<path fill="#FFFFFF" d="M138.213,148.267v-32.731c0-1.101,0.9-2,2-2h21.344c1.1,0,2,0.899,2,2v32.731c0,1.1-0.9,2-2,2h-21.344
						C139.113,150.267,138.213,149.366,138.213,148.267z"/>
					<rect x="134.893" y="130.922" fill="#DDD19F" width="31.984" height="4.319"/>
				</g>
			</g>
			<path fill="#BCB07E" d="M264.902,133.263h-8.086c-0.779,0-1.418-0.638-1.418-1.417v-1.849c0-0.779,0.639-1.417,1.418-1.417h8.086
				c0.779,0,1.418,0.638,1.418,1.417v1.849C266.32,132.625,265.682,133.263,264.902,133.263z"/>
			<path fill="#BCB07E" d="M250.168,165.049h-8.086c-0.779,0-1.418-0.638-1.418-1.417v-1.849c0-0.779,0.639-1.418,1.418-1.418h8.086
				c0.779,0,1.418,0.639,1.418,1.418v1.849C251.586,164.411,250.947,165.049,250.168,165.049z"/>
			<path fill="#BCB07E" d="M184.842,159.354h-8.086c-0.78,0-1.417-0.639-1.417-1.418v-1.848c0-0.78,0.638-1.418,1.417-1.418h8.086
				c0.779,0,1.417,0.638,1.417,1.418v1.848C186.259,158.716,185.621,159.354,184.842,159.354z"/>
			<path fill="#BCB07E" d="M193.99,113.327h-8.086c-0.779,0-1.417-0.638-1.417-1.418v-1.849c0-0.779,0.638-1.417,1.417-1.417h8.086
				c0.78,0,1.417,0.638,1.417,1.417v1.849C195.408,112.689,194.77,113.327,193.99,113.327z"/>
			<path fill="#BCB07E" d="M120.051,120.449h-8.086c-0.78,0-1.417-0.638-1.417-1.417v-1.849c0-0.779,0.638-1.417,1.417-1.417h8.086
				c0.78,0,1.417,0.638,1.417,1.417v1.849C121.469,119.812,120.831,120.449,120.051,120.449z"/>
		</g>
		<g>
			<g>
				<g>
					<path fill="#BCB07E" d="M62.993,13.051L15.934,60.11c-0.599,0.598-0.935,1.409-0.935,2.256v65.986
						c0,1.762,1.428,3.19,3.19,3.19h47.06h47.059c1.762,0,3.19-1.429,3.19-3.19V62.366c0-0.847-0.336-1.658-0.935-2.256
						l-47.059-47.06C66.259,11.805,64.239,11.805,62.993,13.051z"/>
					<path fill="#005B4A" d="M123.974,72.512c-1.001,0-2.001-0.382-2.766-1.146L65.249,15.407L9.29,71.366
						c-1.528,1.527-4.003,1.527-5.531,0s-1.527-4.003,0-5.53L59.797,9.797c1.456-1.456,3.392-2.258,5.452-2.258
						c2.059,0,3.996,0.802,5.452,2.258l56.038,56.039c1.527,1.527,1.527,4.003,0,5.53C125.975,72.13,124.975,72.512,123.974,72.512z
						"/>
					<path fill="#BCB07E" d="M114.081,174.254H16.417c-0.78,0-1.417-0.638-1.417-1.418V76.912c0-0.779,0.638-1.418,1.417-1.418
						h97.665c0.78,0,1.417,0.639,1.417,1.418v95.924C115.499,173.616,114.861,174.254,114.081,174.254z"/>
					<circle fill="#FFFFFF" cx="65.249" cy="54.907" r="10.571"/>
					<g>
						<path fill="#DDD19F" d="M104.297,122.791h-8.086c-0.779,0-1.417-0.638-1.417-1.418v-1.848c0-0.779,0.638-1.418,1.417-1.418
							h8.086c0.779,0,1.417,0.639,1.417,1.418v1.848C105.714,122.153,105.077,122.791,104.297,122.791z"/>
						<path fill="#DDD19F" d="M22.877,156.339h-8.086c-0.78,0-1.417-0.638-1.417-1.417v-1.849c0-0.779,0.638-1.417,1.417-1.417
							h8.086c0.779,0,1.417,0.638,1.417,1.417v1.849C24.294,155.701,23.657,156.339,22.877,156.339z"/>
						<path fill="#DDD19F" d="M115.707,159.354h-8.086c-0.78,0-1.417-0.639-1.417-1.418v-1.848c0-0.78,0.638-1.418,1.417-1.418
							h8.086c0.78,0,1.417,0.638,1.417,1.418v1.848C117.124,158.716,116.486,159.354,115.707,159.354z"/>
					</g>
					<g>
						<path fill="#FFFFFF" d="M46.575,137.713v36.716h18.674v-55.39C54.936,119.039,46.575,127.399,46.575,137.713z"/>
						<path fill="#FFFFFF" d="M83.922,137.713c0-10.313-8.36-18.674-18.673-18.674l0,0v55.39h18.673V137.713z"/>
					</g>
					<g>
						<path fill="#DDD19F" d="M86.659,176.074H43.838c-1.1,0-2-0.9-2-2v-5.498c0-1.1,0.9-2,2-2h42.821c1.1,0,2,0.9,2,2v5.498
							C88.659,175.174,87.759,176.074,86.659,176.074z"/>
						<path fill="#BCB07E" d="M90.886,185.149H39.612c-1.1,0-2-0.9-2-2v-5.498c0-1.1,0.9-2,2-2h51.274c1.1,0,2,0.9,2,2v5.498
							C92.886,184.249,91.985,185.149,90.886,185.149z"/>
					</g>
				</g>
			</g>
			<g>
				<g>
					<g>
						<path fill="#FFFFFF" d="M27.799,108.985V77.836c0-1.1,0.9-2,2-2h20.252c1.1,0,2,0.9,2,2v31.149c0,1.1-0.9,2-2,2H29.799
							C28.699,110.985,27.799,110.085,27.799,108.985z"/>
						<rect x="24.623" y="92.474" fill="#BCB07E" width="30.606" height="4.134"/>
					</g>
				</g>
				<g>
					<g>
						<path fill="#FFFFFF" d="M78.446,108.985V77.836c0-1.1,0.9-2,2-2h20.252c1.1,0,2,0.9,2,2v31.149c0,1.1-0.9,2-2,2H80.446
							C79.346,110.985,78.446,110.085,78.446,108.985z"/>
						<rect x="75.269" y="92.474" fill="#BCB07E" width="30.606" height="4.134"/>
					</g>
				</g>
			</g>
		</g>
	</g>
</g>
</svg>
